<svg width="100" height="100" viewBox="0 0 100 100" fill="none" xmlns="http://www.w3.org/2000/svg">
  <g clip-path="url(#clip0_0_4583)">
    <path
      d="M6.51 71.46C3.23 64.83 1.5 57.43 1.5 50C1.5 23.26 23.26 1.5 50 1.5C64.4 1.5 77.85 7.78 87.1 18.77C55.19 56.51 13.69 69.45 6.51 71.46Z"
      fill="#2FD4B8" />
    <path
      d="M50 3C63.53 3 76.2 8.72 85.12 18.78C55.08 53.73 16.89 66.82 7.31 69.67C4.48 63.54 3 56.79 3 50C3 24.08 24.08 3 50 3ZM50 0C22.39 0 0 22.39 0 50C0 58.38 2.07 66.28 5.72 73.22C5.72 73.22 5.77 73.21 5.86 73.19C8.69 72.47 54.48 60.33 89.05 18.78C79.89 7.33 65.8 0 50 0Z"
      fill="#2FD4B8" />
    <path
      d="M50 98.5C32.73 98.5 16.93 89.41 8.20996 74.61C31.77 73.42 65.55 66.98 98.13 43.99C98.38 45.99 98.5 48 98.5 50C98.5 76.74 76.74 98.5 50 98.5Z"
      fill="#2FD4B8" />
    <path
      d="M96.88 46.6801C96.96 47.7901 97 48.8901 97 50.0001C97 75.9201 75.92 97.0001 50 97.0001C34.1 97.0001 19.49 89.0501 10.83 75.9601C33.92 74.4601 65.83 67.8901 96.89 46.6801M99.26 41.3401C61.39 68.9101 22.15 72.6201 5.72998 73.2201C14.1 89.1401 30.78 100 50.01 100C77.63 100 100.01 77.6201 100.01 50.0001C100.01 47.0501 99.75 44.1501 99.26 41.3401Z"
      fill="#2FD4B8" />
  </g>
  <defs>
    <clipPath id="clip0_0_4583">
      <rect width="100" height="100" fill="white" />
    </clipPath>
  </defs>
</svg>